<svg width="22" height="20" viewBox="0 0 22 20" fill="none" xmlns="http://www.w3.org/2000/svg">
<path d="M19.955 6.01002L13.405 0.770018C12.125 -0.249982 10.125 -0.259982 8.85496 0.760018L2.30496 6.01002C1.36496 6.76002 0.794963 8.26002 0.994963 9.44002L2.25496 16.98C2.54496 18.67 4.11496 20 5.82496 20H16.425C18.115 20 19.715 18.64 20.005 16.97L21.265 9.43002C21.445 8.26002 20.875 6.76002 19.955 6.01002ZM11.875 16C11.875 16.41 11.535 16.75 11.125 16.75C10.715 16.75 10.375 16.41 10.375 16V13C10.375 12.59 10.715 12.25 11.125 12.25C11.535 12.25 11.875 12.59 11.875 13V16Z" fill="white"/>
</svg>
