<svg width="24" height="24" viewBox="0 0 24 24" fill="none" xmlns="http://www.w3.org/2000/svg">
<path d="M15.84 11.7792H8.15997C6.44425 11.7792 4.79844 12.4591 3.58299 13.67C2.36754 14.881 1.68152 16.5243 1.67517 18.24V23.52H22.3152V18.24C22.3088 16.5259 21.6241 14.8841 20.4108 13.6734C19.1974 12.4627 17.554 11.7817 15.84 11.7792V11.7792ZM20.8752 22.08H3.11517V18.24C3.12152 16.9062 3.65582 15.6292 4.60122 14.6883C5.54661 13.7474 6.82615 13.2192 8.15997 13.2192H15.84C17.1721 13.2217 18.4492 13.751 19.3925 14.6916C20.3359 15.6323 20.8688 16.9078 20.8752 18.24V22.08Z" fill="black"/>
<path d="M11.9999 10.992C13.011 10.992 13.9994 10.6922 14.84 10.1305C15.6807 9.56877 16.3359 8.77038 16.7228 7.83629C17.1097 6.90219 17.211 5.87434 17.0137 4.88271C16.8165 3.89107 16.3296 2.9802 15.6147 2.26528C14.8997 1.55035 13.9889 1.06348 12.9972 0.866233C12.0056 0.668986 10.9778 0.77022 10.0437 1.15714C9.10957 1.54405 8.31118 2.19927 7.74947 3.03993C7.18775 3.8806 6.88794 4.86895 6.88794 5.88001C6.88794 7.23579 7.42652 8.53605 8.38521 9.49474C9.3439 10.4534 10.6442 10.992 11.9999 10.992V10.992ZM11.9999 2.20801C12.7262 2.20801 13.4361 2.42337 14.04 2.82685C14.6439 3.23034 15.1145 3.80382 15.3924 4.47479C15.6704 5.14576 15.7431 5.88408 15.6014 6.59638C15.4597 7.30868 15.11 7.96297 14.5964 8.4765C14.0829 8.99004 13.4286 9.33977 12.7163 9.48145C12.004 9.62314 11.2657 9.55042 10.5947 9.27249C9.92376 8.99457 9.35027 8.52392 8.94678 7.92006C8.5433 7.3162 8.32794 6.60626 8.32794 5.88001C8.32921 4.90652 8.71649 3.97327 9.40485 3.28491C10.0932 2.59656 11.0265 2.20928 11.9999 2.20801V2.20801Z" fill="black"/>
</svg>
