<svg width="22" height="22" viewBox="0 0 22 22" fill="none" xmlns="http://www.w3.org/2000/svg">
<path d="M20.71 19.29L17.88 16.47C19.4141 14.5747 20.1626 12.1629 19.9709 9.73203C19.7792 7.30113 18.662 5.03646 16.8497 3.40501C15.0375 1.77356 12.6683 0.899713 10.2306 0.963666C7.79304 1.02762 5.47291 2.0245 3.74867 3.74874C2.02444 5.47297 1.02756 7.79311 0.963605 10.2307C0.899651 12.6683 1.7735 15.0375 3.40495 16.8498C5.0364 18.6621 7.30107 19.7792 9.73197 19.9709C12.1629 20.1626 14.5746 19.4142 16.47 17.88L19.29 20.71C19.3829 20.8038 19.4935 20.8782 19.6154 20.9289C19.7373 20.9797 19.868 21.0058 20 21.0058C20.132 21.0058 20.2627 20.9797 20.3845 20.9289C20.5064 20.8782 20.617 20.8038 20.71 20.71C20.8037 20.6171 20.8781 20.5065 20.9289 20.3846C20.9796 20.2627 21.0058 20.132 21.0058 20C21.0058 19.868 20.9796 19.7373 20.9289 19.6155C20.8781 19.4936 20.8037 19.383 20.71 19.29V19.29ZM2.99997 10.5C2.99997 9.01667 3.43984 7.56662 4.26395 6.33325C5.08806 5.09988 6.2594 4.13859 7.62984 3.57093C9.00029 3.00328 10.5083 2.85475 11.9631 3.14414C13.418 3.43353 14.7544 4.14783 15.8033 5.19673C16.8522 6.24562 17.5665 7.582 17.8559 9.03685C18.1452 10.4917 17.9967 11.9997 17.4291 13.3702C16.8614 14.7406 15.9001 15.9119 14.6667 16.7361C13.4334 17.5602 11.9833 18 10.5 18C8.51085 18 6.60319 17.2099 5.19667 15.8033C3.79014 14.3968 2.99997 12.4892 2.99997 10.5V10.5Z" fill="black"/>
</svg>
